<?xml version="1.0" encoding="utf-8"?>
<!-- Generator: Adobe Illustrator 23.0.3, SVG Export Plug-In . SVG Version: 6.00 Build 0)  -->
<svg version="1.1" id="Layer_1" xmlns="http://www.w3.org/2000/svg" xmlns:xlink="http://www.w3.org/1999/xlink" x="0px" y="0px"
	 viewBox="0 0 435 169" style="enable-background:new 0 0 435 169;" xml:space="preserve">
<style type="text/css">
	.st0{fill:#CA9731;}
</style>
<g>
	<g>
		<path class="st0" d="M47.8,150.9v2.9c0,0.4,0,0.7-0.1,0.9c-0.1,0.2-0.2,0.4-0.4,0.6c-0.2,0.2-0.5,0.4-0.8,0.5
			c-0.9,0.5-1.8,0.9-2.7,1.1c-0.9,0.2-1.8,0.3-2.8,0.3c-1.2,0-2.2-0.2-3.2-0.5c-1-0.4-1.8-0.9-2.5-1.6c-0.7-0.7-1.2-1.5-1.6-2.5
			c-0.4-1-0.5-2.1-0.5-3.3c0-1.2,0.2-2.3,0.5-3.3c0.4-1,0.9-1.8,1.6-2.5c0.7-0.7,1.5-1.2,2.5-1.6c1-0.4,2.1-0.5,3.4-0.5
			c1,0,1.9,0.1,2.7,0.4c0.8,0.3,1.4,0.6,1.9,1c0.5,0.4,0.9,0.9,1.1,1.3c0.3,0.5,0.4,0.9,0.4,1.2c0,0.4-0.1,0.7-0.4,1
			c-0.3,0.3-0.6,0.4-1,0.4c-0.2,0-0.4-0.1-0.6-0.2c-0.2-0.1-0.4-0.3-0.5-0.4c-0.4-0.6-0.7-1.1-1-1.4c-0.3-0.3-0.6-0.6-1.1-0.8
			c-0.4-0.2-1-0.3-1.7-0.3c-0.7,0-1.4,0.1-1.9,0.4c-0.6,0.2-1,0.6-1.4,1.1c-0.4,0.5-0.7,1-0.9,1.7c-0.2,0.7-0.3,1.4-0.3,2.3
			c0,1.8,0.4,3.2,1.2,4.1c0.8,1,2,1.4,3.4,1.4c0.7,0,1.4-0.1,2-0.3c0.6-0.2,1.3-0.5,1.9-0.8v-2.5l-2.4,0c-0.6,0-1-0.1-1.3-0.3
			c-0.3-0.2-0.4-0.5-0.4-0.9c0-0.3,0.1-0.6,0.4-0.8c0.2-0.2,0.6-0.3,1-0.3l3.5,0c0.4,0,0.8,0,1.1,0.1c0.3,0.1,0.5,0.2,0.7,0.5
			C47.7,149.9,47.8,150.3,47.8,150.9z"/>
		<path class="st0" d="M53.8,143.4l0,11.1l6.3,0c0.5,0,0.9,0.1,1.2,0.4c0.3,0.2,0.4,0.5,0.4,0.9c0,0.4-0.1,0.7-0.4,0.9
			c-0.3,0.2-0.7,0.3-1.2,0.3l-7.5,0c-0.7,0-1.2-0.1-1.5-0.4c-0.3-0.3-0.4-0.8-0.4-1.4l0-11.8c0-0.6,0.1-1.1,0.4-1.4
			c0.3-0.3,0.7-0.5,1.1-0.5c0.5,0,0.8,0.2,1.1,0.5C53.6,142.3,53.8,142.8,53.8,143.4z"/>
		<path class="st0" d="M69.3,141.5c1.6,0,2.9,0.3,4.1,1c1.1,0.6,2,1.6,2.6,2.7c0.6,1.2,0.9,2.6,0.9,4.2c0,1.2-0.2,2.3-0.5,3.2
			c-0.3,1-0.8,1.8-1.4,2.5c-0.6,0.7-1.4,1.3-2.4,1.6c-0.9,0.4-2,0.6-3.2,0.6c-1.2,0-2.3-0.2-3.2-0.6c-0.9-0.4-1.7-0.9-2.4-1.6
			c-0.6-0.7-1.1-1.5-1.4-2.5c-0.3-1-0.5-2.1-0.5-3.2c0-1.2,0.2-2.3,0.5-3.2c0.3-1,0.8-1.8,1.5-2.5c0.6-0.7,1.4-1.2,2.3-1.6
			S68.1,141.5,69.3,141.5z M73.7,149.4c0-1.1-0.2-2.1-0.5-2.9c-0.4-0.8-0.9-1.4-1.5-1.9c-0.7-0.4-1.4-0.6-2.3-0.6
			c-0.6,0-1.2,0.1-1.7,0.4c-0.5,0.2-1,0.6-1.4,1c-0.4,0.4-0.7,1-0.9,1.7c-0.2,0.7-0.3,1.5-0.3,2.3c0,0.9,0.1,1.7,0.3,2.4
			c0.2,0.7,0.5,1.3,0.9,1.7c0.4,0.5,0.9,0.8,1.4,1c0.5,0.2,1.1,0.3,1.7,0.3c0.8,0,1.5-0.2,2.2-0.6c0.7-0.4,1.2-1,1.6-1.8
			C73.5,151.6,73.7,150.6,73.7,149.4z"/>
		<path class="st0" d="M86,157.1l-4.7,0c-0.7,0-1.2-0.2-1.4-0.5c-0.3-0.3-0.4-0.8-0.4-1.4l0-11.5c0-0.7,0.1-1.2,0.4-1.5
			c0.3-0.3,0.8-0.4,1.4-0.4l5,0c0.7,0,1.4,0,1.9,0.1c0.5,0.1,1,0.3,1.4,0.5c0.4,0.2,0.7,0.5,1,0.8c0.3,0.3,0.5,0.7,0.6,1.1
			c0.1,0.4,0.2,0.8,0.2,1.3c0,1.5-0.8,2.6-2.3,3.4c2,0.6,3,1.9,3,3.7c0,0.9-0.2,1.6-0.7,2.3c-0.4,0.7-1,1.2-1.8,1.5
			c-0.5,0.2-1,0.3-1.6,0.4C87.5,157,86.8,157.1,86,157.1z M82.6,144.1v4h2.8c0.8,0,1.4-0.1,1.8-0.2c0.4-0.1,0.7-0.4,1-0.8
			c0.2-0.3,0.3-0.6,0.3-1c0-0.8-0.3-1.3-0.8-1.5c-0.5-0.3-1.4-0.4-2.5-0.4H82.6z M85.8,150.3h-3.2v4.5h3.3c2.1,0,3.1-0.8,3.1-2.3
			c0-0.8-0.3-1.3-0.8-1.7C87.7,150.5,86.9,150.3,85.8,150.3z"/>
		<path class="st0" d="M103.8,155.3l-0.7-1.9l-6.2,0l-0.7,2c-0.3,0.8-0.5,1.3-0.7,1.5c-0.2,0.3-0.5,0.4-1,0.4c-0.4,0-0.7-0.1-1-0.4
			c-0.3-0.3-0.4-0.6-0.5-1c0-0.2,0-0.4,0.1-0.6c0.1-0.2,0.2-0.5,0.3-0.9l3.9-9.9c0.1-0.3,0.2-0.6,0.4-1c0.2-0.4,0.3-0.7,0.5-1
			c0.2-0.3,0.4-0.5,0.7-0.6c0.3-0.2,0.6-0.2,1.1-0.2c0.4,0,0.8,0.1,1.1,0.2c0.3,0.2,0.5,0.4,0.7,0.6c0.2,0.3,0.3,0.5,0.4,0.8
			c0.1,0.3,0.3,0.7,0.5,1.2l4,9.9c0.3,0.8,0.5,1.3,0.5,1.6c0,0.4-0.1,0.7-0.4,1c-0.3,0.3-0.7,0.4-1.1,0.4c-0.2,0-0.5,0-0.6-0.1
			c-0.2-0.1-0.3-0.2-0.4-0.4c-0.1-0.1-0.2-0.4-0.4-0.7C104,155.9,103.9,155.6,103.8,155.3z M97.7,151.1l4.6,0l-2.3-6.3L97.7,151.1z"
			/>
		<path class="st0" d="M112.4,143.4l0,11.1l6.3,0c0.5,0,0.9,0.1,1.2,0.4c0.3,0.2,0.4,0.5,0.4,0.9c0,0.4-0.1,0.7-0.4,0.9
			s-0.7,0.4-1.2,0.4l-7.5,0c-0.7,0-1.2-0.1-1.5-0.4c-0.3-0.3-0.4-0.8-0.4-1.4l0-11.8c0-0.6,0.1-1.1,0.4-1.4c0.3-0.3,0.7-0.5,1.1-0.5
			c0.5,0,0.8,0.2,1.1,0.5C112.3,142.3,112.4,142.8,112.4,143.4z"/>
		<path class="st0" d="M140.7,152.2c0,0.5-0.1,1-0.4,1.6c-0.2,0.6-0.6,1.1-1.1,1.7c-0.5,0.5-1.2,1-2,1.3c-0.8,0.3-1.7,0.5-2.8,0.5
			c-0.8,0-1.5-0.1-2.2-0.2c-0.7-0.2-1.3-0.4-1.8-0.7c-0.5-0.3-1-0.7-1.5-1.3c-0.4-0.5-0.7-1-1-1.6c-0.3-0.6-0.5-1.2-0.6-1.9
			c-0.1-0.7-0.2-1.4-0.2-2.1c0-1.2,0.2-2.3,0.5-3.3c0.4-1,0.9-1.8,1.5-2.5c0.7-0.7,1.4-1.2,2.3-1.6c0.9-0.4,1.9-0.5,2.9-0.5
			c1.2,0,2.3,0.2,3.3,0.7c1,0.5,1.7,1.1,2.2,1.8c0.5,0.7,0.8,1.4,0.8,2.1c0,0.4-0.1,0.7-0.4,0.9c-0.3,0.3-0.6,0.4-0.9,0.4
			c-0.4,0-0.7-0.1-0.9-0.3c-0.2-0.2-0.4-0.5-0.7-1c-0.4-0.8-0.9-1.3-1.4-1.7s-1.2-0.6-2-0.6c-1.3,0-2.3,0.5-3,1.5
			c-0.8,1-1.1,2.3-1.1,4.1c0,1.2,0.2,2.2,0.5,3c0.3,0.8,0.8,1.4,1.4,1.8c0.6,0.4,1.3,0.6,2.1,0.6c0.9,0,1.6-0.2,2.3-0.7
			c0.6-0.4,1.1-1.1,1.4-1.9c0.1-0.4,0.3-0.7,0.5-1c0.2-0.3,0.5-0.4,0.9-0.4c0.4,0,0.7,0.1,0.9,0.4
			C140.5,151.5,140.7,151.9,140.7,152.2z"/>
		<path class="st0" d="M150.2,141.5c1.6,0,2.9,0.3,4.1,1c1.1,0.6,2,1.6,2.6,2.7c0.6,1.2,0.9,2.6,0.9,4.2c0,1.2-0.2,2.3-0.5,3.2
			c-0.3,1-0.8,1.8-1.4,2.5c-0.6,0.7-1.4,1.3-2.4,1.6c-0.9,0.4-2,0.6-3.2,0.6c-1.2,0-2.3-0.2-3.2-0.6c-0.9-0.4-1.7-0.9-2.4-1.6
			c-0.6-0.7-1.1-1.5-1.4-2.5c-0.3-1-0.5-2.1-0.5-3.2c0-1.2,0.2-2.3,0.5-3.2c0.3-1,0.8-1.8,1.5-2.5c0.6-0.7,1.4-1.2,2.3-1.6
			C148,141.7,149,141.5,150.2,141.5z M154.6,149.4c0-1.1-0.2-2.1-0.5-2.9c-0.4-0.8-0.9-1.4-1.5-1.9c-0.7-0.4-1.4-0.6-2.3-0.6
			c-0.6,0-1.2,0.1-1.7,0.3c-0.5,0.2-1,0.6-1.4,1c-0.4,0.4-0.7,1-0.9,1.7c-0.2,0.7-0.3,1.5-0.3,2.3c0,0.9,0.1,1.7,0.3,2.4
			c0.2,0.7,0.5,1.3,0.9,1.7c0.4,0.5,0.9,0.8,1.4,1c0.5,0.2,1.1,0.3,1.7,0.3c0.8,0,1.5-0.2,2.2-0.6c0.7-0.4,1.2-1,1.6-1.8
			C154.4,151.6,154.6,150.6,154.6,149.4z"/>
		<path class="st0" d="M164.4,143.4l6,9l0-9.1c0-0.6,0.1-1,0.4-1.3c0.3-0.3,0.6-0.4,1-0.4c0.4,0,0.8,0.1,1.1,0.4
			c0.3,0.3,0.4,0.7,0.4,1.3l0,12c0,1.3-0.6,2-1.7,2c-0.3,0-0.5,0-0.8-0.1c-0.2-0.1-0.4-0.2-0.6-0.4c-0.2-0.2-0.4-0.4-0.5-0.6
			c-0.2-0.2-0.3-0.5-0.5-0.7l-5.8-8.9l0,9c0,0.6-0.1,1-0.4,1.3c-0.3,0.3-0.6,0.4-1,0.4c-0.4,0-0.8-0.2-1.1-0.5
			c-0.3-0.3-0.4-0.7-0.4-1.3l0-11.8c0-0.5,0.1-0.9,0.2-1.2c0.1-0.3,0.4-0.6,0.7-0.8c0.3-0.2,0.6-0.3,1-0.3c0.3,0,0.5,0,0.7,0.1
			c0.2,0.1,0.4,0.2,0.5,0.4c0.1,0.2,0.3,0.4,0.5,0.6C164.1,142.9,164.2,143.1,164.4,143.4z"/>
		<path class="st0" d="M188.2,152.5c0,0.9-0.2,1.8-0.7,2.5c-0.5,0.7-1.2,1.3-2.1,1.7c-0.9,0.4-2,0.6-3.3,0.6c-1.5,0-2.8-0.3-3.7-0.9
			c-0.7-0.4-1.3-1-1.7-1.6c-0.4-0.7-0.7-1.3-0.7-2c0-0.4,0.1-0.7,0.4-1s0.6-0.4,1-0.4c0.3,0,0.6,0.1,0.8,0.3
			c0.2,0.2,0.4,0.5,0.6,0.9c0.2,0.5,0.4,0.9,0.6,1.2c0.2,0.3,0.5,0.6,1,0.8c0.4,0.2,0.9,0.3,1.6,0.3c0.9,0,1.7-0.2,2.2-0.6
			c0.6-0.4,0.9-1,0.9-1.6c0-0.5-0.2-0.9-0.5-1.2c-0.3-0.3-0.7-0.6-1.2-0.7c-0.5-0.2-1.1-0.3-2-0.5c-1.1-0.3-2-0.6-2.8-0.9
			c-0.7-0.3-1.3-0.8-1.8-1.4c-0.4-0.6-0.7-1.3-0.7-2.2c0-0.8,0.2-1.6,0.7-2.2c0.5-0.7,1.1-1.2,2-1.5c0.9-0.4,1.9-0.5,3.1-0.5
			c0.9,0,1.8,0.1,2.4,0.3c0.7,0.2,1.3,0.5,1.7,0.9c0.5,0.4,0.8,0.8,1,1.2c0.2,0.4,0.3,0.8,0.3,1.2c0,0.4-0.1,0.7-0.4,1
			c-0.3,0.3-0.6,0.4-1,0.4c-0.4,0-0.6-0.1-0.8-0.3c-0.2-0.2-0.4-0.5-0.6-0.9c-0.3-0.6-0.6-1-1-1.4c-0.4-0.3-1-0.5-1.9-0.5
			c-0.8,0-1.4,0.2-1.9,0.5c-0.5,0.4-0.7,0.8-0.7,1.3c0,0.3,0.1,0.6,0.2,0.8c0.2,0.2,0.4,0.4,0.7,0.6c0.3,0.2,0.6,0.3,0.9,0.4
			c0.3,0.1,0.8,0.2,1.5,0.4c0.9,0.2,1.6,0.4,2.3,0.7c0.7,0.2,1.3,0.5,1.8,0.9s0.9,0.8,1.1,1.3C188.1,151,188.2,151.7,188.2,152.5z"
			/>
		<path class="st0" d="M190.9,150.7l0-7.4c0-0.6,0.1-1.1,0.4-1.4c0.3-0.3,0.7-0.5,1.1-0.5c0.5,0,0.9,0.2,1.1,0.5
			c0.3,0.3,0.4,0.8,0.4,1.4l0,7.5c0,0.9,0.1,1.6,0.3,2.1c0.2,0.6,0.5,1,1,1.3c0.5,0.3,1.2,0.5,2,0.5c1.2,0,2.1-0.3,2.6-1
			c0.5-0.6,0.8-1.6,0.8-2.9l0-7.6c0-0.6,0.1-1.1,0.4-1.4c0.3-0.3,0.7-0.5,1.1-0.5c0.5,0,0.8,0.2,1.1,0.5c0.3,0.3,0.4,0.8,0.4,1.4
			l0,7.4c0,1.2-0.1,2.2-0.3,3s-0.7,1.5-1.3,2.1c-0.6,0.5-1.2,0.9-1.9,1.1c-0.7,0.2-1.6,0.4-2.6,0.4c-1.2,0-2.2-0.1-3-0.4
			c-0.8-0.3-1.5-0.6-2.1-1.2c-0.5-0.5-0.9-1.2-1.2-2C191,152.9,190.9,151.9,190.9,150.7z"/>
		<path class="st0" d="M210.1,143.4l0,11.1l6.3,0c0.5,0,0.9,0.1,1.2,0.4c0.3,0.2,0.4,0.5,0.4,0.9c0,0.4-0.1,0.7-0.4,0.9
			s-0.7,0.3-1.2,0.3l-7.5,0c-0.7,0-1.2-0.1-1.5-0.4c-0.3-0.3-0.4-0.8-0.4-1.4l0-11.8c0-0.6,0.1-1.1,0.4-1.4c0.3-0.3,0.7-0.5,1.1-0.5
			c0.5,0,0.8,0.2,1.1,0.5C210,142.3,210.1,142.7,210.1,143.4z"/>
		<path class="st0" d="M227.2,144.3l-3.4,0l0,11.1c0,0.6-0.1,1.1-0.4,1.4c-0.3,0.3-0.7,0.5-1.1,0.5c-0.5,0-0.8-0.2-1.1-0.5
			s-0.4-0.8-0.4-1.4l0-11.1l-3.4,0c-0.5,0-0.9-0.1-1.2-0.3c-0.3-0.2-0.4-0.5-0.4-0.9c0-0.4,0.1-0.7,0.4-0.9c0.3-0.2,0.7-0.3,1.2-0.3
			l9.8,0c0.5,0,0.9,0.1,1.2,0.4c0.3,0.2,0.4,0.5,0.4,0.9c0,0.4-0.1,0.7-0.4,0.9S227.8,144.3,227.2,144.3z"/>
		<path class="st0" d="M239.1,155.3l-0.7-1.9l-6.2,0l-0.7,2c-0.3,0.8-0.5,1.3-0.7,1.5c-0.2,0.3-0.5,0.4-1,0.4c-0.4,0-0.7-0.1-1-0.4
			c-0.3-0.3-0.4-0.6-0.5-1c0-0.2,0-0.4,0.1-0.6c0.1-0.2,0.2-0.5,0.3-0.9l3.9-9.9c0.1-0.3,0.2-0.6,0.4-1c0.2-0.4,0.3-0.7,0.5-1
			c0.2-0.3,0.4-0.5,0.7-0.6c0.3-0.2,0.6-0.2,1.1-0.2c0.4,0,0.8,0.1,1.1,0.2c0.3,0.2,0.5,0.4,0.7,0.6c0.2,0.3,0.3,0.5,0.4,0.8
			c0.1,0.3,0.3,0.7,0.5,1.2l4,9.9c0.3,0.8,0.5,1.3,0.5,1.6c0,0.4-0.1,0.7-0.4,1c-0.3,0.3-0.7,0.4-1.1,0.4c-0.2,0-0.5,0-0.6-0.1
			c-0.2-0.1-0.3-0.2-0.4-0.4c-0.1-0.1-0.2-0.4-0.4-0.7C239.3,155.8,239.2,155.6,239.1,155.3z M233,151.1h4.6l-2.3-6.3L233,151.1z"/>
		<path class="st0" d="M248.7,143.4l6,9l0-9.1c0-0.6,0.1-1,0.4-1.3c0.3-0.3,0.6-0.4,1-0.4c0.4,0,0.8,0.1,1.1,0.4
			c0.3,0.3,0.4,0.7,0.4,1.3l0,12c0,1.3-0.6,2-1.7,2c-0.3,0-0.5,0-0.8-0.1c-0.2-0.1-0.4-0.2-0.6-0.4c-0.2-0.2-0.4-0.4-0.5-0.6
			c-0.2-0.2-0.3-0.5-0.5-0.7l-5.8-8.9l0,9c0,0.6-0.1,1-0.4,1.3c-0.3,0.3-0.6,0.4-1,0.4c-0.4,0-0.8-0.2-1.1-0.5s-0.4-0.7-0.4-1.3
			l0-11.8c0-0.5,0.1-0.9,0.2-1.2c0.1-0.3,0.4-0.6,0.7-0.8c0.3-0.2,0.6-0.3,1-0.3c0.3,0,0.5,0,0.7,0.1c0.2,0.1,0.4,0.2,0.5,0.4
			c0.1,0.2,0.3,0.4,0.5,0.6C248.4,142.8,248.6,143.1,248.7,143.4z"/>
		<path class="st0" d="M273.9,152.2c0,0.5-0.1,1-0.4,1.6c-0.2,0.6-0.6,1.1-1.1,1.7c-0.5,0.5-1.2,1-2,1.3c-0.8,0.3-1.7,0.5-2.8,0.5
			c-0.8,0-1.5-0.1-2.2-0.2c-0.7-0.2-1.3-0.4-1.8-0.7c-0.5-0.3-1-0.7-1.5-1.3c-0.4-0.5-0.7-1-1-1.6c-0.3-0.6-0.5-1.2-0.6-1.9
			c-0.1-0.7-0.2-1.4-0.2-2.1c0-1.2,0.2-2.3,0.5-3.3c0.4-1,0.9-1.8,1.5-2.5c0.7-0.7,1.4-1.2,2.3-1.6c0.9-0.4,1.9-0.5,2.9-0.5
			c1.2,0,2.3,0.2,3.3,0.7c1,0.5,1.7,1.1,2.2,1.8c0.5,0.7,0.8,1.4,0.8,2.1c0,0.4-0.1,0.7-0.4,0.9c-0.3,0.3-0.6,0.4-0.9,0.4
			c-0.4,0-0.7-0.1-0.9-0.3c-0.2-0.2-0.4-0.5-0.7-1c-0.4-0.8-0.9-1.3-1.4-1.7c-0.5-0.4-1.2-0.6-2-0.6c-1.3,0-2.3,0.5-3,1.4
			c-0.8,1-1.1,2.3-1.1,4.1c0,1.2,0.2,2.2,0.5,3c0.3,0.8,0.8,1.4,1.4,1.8c0.6,0.4,1.3,0.6,2.1,0.6c0.9,0,1.6-0.2,2.3-0.7
			c0.6-0.4,1.1-1.1,1.4-1.9c0.1-0.4,0.3-0.7,0.5-1c0.2-0.3,0.5-0.4,0.9-0.4c0.4,0,0.7,0.1,0.9,0.4S273.9,151.8,273.9,152.2z"/>
		<path class="st0" d="M280.1,155.4v-4.8l-3.7-5.8c-0.3-0.5-0.6-0.9-0.7-1.2c-0.1-0.3-0.2-0.5-0.2-0.8c0-0.4,0.1-0.7,0.4-0.9
			c0.3-0.3,0.6-0.4,1-0.4c0.4,0,0.7,0.1,1,0.4c0.2,0.2,0.5,0.7,1,1.4l2.9,4.6l2.9-4.6c0.2-0.3,0.3-0.5,0.4-0.7
			c0.1-0.2,0.2-0.4,0.4-0.5c0.1-0.2,0.3-0.3,0.5-0.4c0.2-0.1,0.4-0.1,0.6-0.1c0.4,0,0.7,0.1,1,0.4c0.3,0.3,0.4,0.5,0.4,0.9
			c0,0.3-0.1,0.5-0.2,0.8c-0.1,0.3-0.4,0.6-0.7,1.1l-3.8,5.9v4.8c0,0.6-0.1,1.1-0.4,1.4c-0.3,0.3-0.7,0.5-1.1,0.5
			c-0.5,0-0.8-0.2-1.1-0.5C280.3,156.5,280.1,156.1,280.1,155.4z"/>
		<path class="st0" d="M307,152.4c0,0.9-0.2,1.8-0.7,2.5c-0.5,0.7-1.2,1.3-2.1,1.7c-0.9,0.4-2,0.6-3.3,0.6c-1.5,0-2.8-0.3-3.7-0.9
			c-0.7-0.4-1.3-1-1.7-1.6c-0.4-0.7-0.7-1.4-0.7-2c0-0.4,0.1-0.7,0.4-1c0.3-0.3,0.6-0.4,1-0.4c0.3,0,0.6,0.1,0.8,0.3
			c0.2,0.2,0.4,0.5,0.6,0.9c0.2,0.5,0.4,0.9,0.6,1.2c0.2,0.3,0.5,0.6,1,0.8c0.4,0.2,0.9,0.3,1.6,0.3c0.9,0,1.7-0.2,2.2-0.6
			c0.6-0.4,0.9-1,0.9-1.6c0-0.5-0.2-0.9-0.5-1.2c-0.3-0.3-0.7-0.6-1.2-0.7c-0.5-0.2-1.1-0.3-2-0.5c-1.1-0.3-2-0.6-2.8-0.9
			c-0.7-0.3-1.3-0.8-1.8-1.4c-0.4-0.6-0.7-1.3-0.7-2.2c0-0.8,0.2-1.6,0.7-2.2c0.5-0.7,1.1-1.2,2-1.5c0.9-0.4,1.9-0.5,3.1-0.5
			c0.9,0,1.8,0.1,2.4,0.3c0.7,0.2,1.3,0.5,1.7,0.9c0.5,0.4,0.8,0.8,1,1.2c0.2,0.4,0.3,0.8,0.3,1.2c0,0.4-0.1,0.7-0.4,1
			c-0.3,0.3-0.6,0.4-1,0.4c-0.4,0-0.6-0.1-0.8-0.3c-0.2-0.2-0.4-0.5-0.6-0.9c-0.3-0.6-0.6-1-1-1.4c-0.4-0.3-1-0.5-1.9-0.5
			c-0.8,0-1.4,0.2-1.9,0.5c-0.5,0.4-0.7,0.8-0.7,1.3c0,0.3,0.1,0.6,0.2,0.8c0.2,0.2,0.4,0.4,0.7,0.6c0.3,0.2,0.6,0.3,0.9,0.4
			c0.3,0.1,0.8,0.2,1.5,0.4c0.9,0.2,1.6,0.4,2.3,0.7c0.7,0.2,1.3,0.5,1.8,0.9s0.9,0.8,1.1,1.3C306.9,151,307,151.7,307,152.4z"/>
		<path class="st0" d="M319.8,144.1l-7,0v3.8l6.4,0c0.5,0,0.8,0.1,1.1,0.3c0.2,0.2,0.3,0.5,0.3,0.8c0,0.3-0.1,0.6-0.3,0.9
			c-0.2,0.2-0.6,0.3-1.1,0.3l-6.4,0v4.4l7.2,0c0.5,0,0.9,0.1,1.1,0.3c0.2,0.2,0.4,0.5,0.4,0.9c0,0.4-0.1,0.7-0.4,0.9
			c-0.2,0.2-0.6,0.3-1.1,0.3l-8.4,0c-0.7,0-1.2-0.1-1.5-0.4c-0.3-0.3-0.4-0.8-0.4-1.4l0-11.5c0-0.4,0.1-0.8,0.2-1.1
			c0.1-0.3,0.3-0.5,0.6-0.6c0.3-0.1,0.6-0.2,1.1-0.2l8.2,0c0.5,0,0.9,0.1,1.1,0.3c0.2,0.2,0.4,0.5,0.4,0.9c0,0.4-0.1,0.7-0.4,0.9
			C320.6,144,320.2,144.1,319.8,144.1z"/>
		<path class="st0" d="M328.1,150.5l-1.1,0v4.9c0,0.6-0.1,1.1-0.4,1.4c-0.3,0.3-0.7,0.5-1.1,0.5c-0.5,0-0.9-0.2-1.1-0.5
			c-0.3-0.3-0.4-0.8-0.4-1.4l0-11.8c0-0.7,0.1-1.2,0.4-1.4c0.3-0.3,0.8-0.4,1.4-0.4l5,0c0.7,0,1.3,0,1.8,0.1s0.9,0.2,1.3,0.4
			c0.5,0.2,0.9,0.5,1.3,0.9c0.4,0.4,0.6,0.8,0.8,1.3s0.3,1,0.3,1.6c0,1.1-0.3,2.1-1,2.7c-0.6,0.7-1.6,1.2-2.9,1.5
			c0.5,0.3,1.1,0.7,1.6,1.3c0.5,0.6,0.9,1.2,1.3,1.8c0.4,0.6,0.7,1.2,0.9,1.7c0.2,0.5,0.3,0.9,0.3,1.1c0,0.2-0.1,0.4-0.2,0.6
			c-0.1,0.2-0.3,0.4-0.5,0.5c-0.2,0.1-0.5,0.2-0.8,0.2c-0.3,0-0.6-0.1-0.9-0.2c-0.2-0.2-0.4-0.4-0.6-0.6c-0.2-0.2-0.4-0.6-0.7-1.1
			l-1.2-2.1c-0.4-0.8-0.8-1.3-1.2-1.7c-0.4-0.4-0.7-0.7-1.1-0.8C329.1,150.6,328.6,150.5,328.1,150.5z M329.9,144.1l-2.9,0v4.2
			l2.8,0c0.7,0,1.4-0.1,1.9-0.2c0.5-0.1,0.9-0.3,1.2-0.7c0.3-0.3,0.4-0.7,0.4-1.3c0-0.4-0.1-0.8-0.3-1.1c-0.2-0.3-0.5-0.6-0.9-0.7
			C331.6,144.1,330.9,144.1,329.9,144.1z"/>
		<path class="st0" d="M341,143.5l3.5,10.3l3.5-10.3c0.2-0.5,0.3-0.9,0.4-1.1c0.1-0.2,0.2-0.4,0.4-0.6c0.2-0.2,0.5-0.3,0.9-0.3
			c0.3,0,0.5,0.1,0.7,0.2c0.2,0.1,0.4,0.3,0.5,0.5c0.1,0.2,0.2,0.4,0.2,0.7c0,0.2,0,0.3-0.1,0.5c0,0.2-0.1,0.4-0.2,0.5
			c-0.1,0.2-0.1,0.3-0.2,0.5l-3.7,10c-0.1,0.4-0.3,0.7-0.4,1.1c-0.1,0.3-0.3,0.6-0.5,0.9c-0.2,0.3-0.4,0.5-0.7,0.6
			c-0.3,0.2-0.6,0.2-1.1,0.2s-0.8-0.1-1.1-0.2c-0.3-0.2-0.5-0.4-0.7-0.6c-0.2-0.3-0.3-0.6-0.5-0.9c-0.1-0.3-0.3-0.7-0.4-1.1
			l-3.6-9.9c-0.1-0.2-0.1-0.4-0.2-0.5s-0.1-0.4-0.2-0.6c0-0.2-0.1-0.4-0.1-0.5c0-0.4,0.1-0.7,0.4-1c0.3-0.3,0.6-0.4,1.1-0.4
			c0.5,0,0.9,0.2,1.1,0.5C340.6,142.3,340.8,142.8,341,143.5z"/>
		<path class="st0" d="M353.6,155.4l0-12c0-0.6,0.1-1.1,0.4-1.4c0.3-0.3,0.7-0.5,1.1-0.5c0.5,0,0.8,0.2,1.1,0.5s0.4,0.8,0.4,1.4
			l0,12c0,0.6-0.1,1.1-0.4,1.4c-0.3,0.3-0.7,0.5-1.1,0.5c-0.4,0-0.8-0.2-1.1-0.5C353.7,156.5,353.6,156,353.6,155.4z"/>
		<path class="st0" d="M373.2,152.2c0,0.5-0.1,1-0.4,1.6c-0.2,0.6-0.6,1.1-1.1,1.7c-0.5,0.5-1.2,1-2,1.3c-0.8,0.3-1.7,0.5-2.8,0.5
			c-0.8,0-1.5-0.1-2.2-0.2c-0.7-0.2-1.3-0.4-1.8-0.7c-0.5-0.3-1-0.7-1.5-1.3c-0.4-0.5-0.7-1-1-1.6c-0.3-0.6-0.5-1.2-0.6-1.9
			c-0.1-0.7-0.2-1.4-0.2-2.1c0-1.2,0.2-2.3,0.5-3.3c0.4-1,0.9-1.8,1.5-2.5c0.7-0.7,1.4-1.2,2.3-1.6c0.9-0.4,1.9-0.5,2.9-0.5
			c1.2,0,2.3,0.2,3.3,0.7c1,0.5,1.7,1.1,2.2,1.8c0.5,0.7,0.8,1.4,0.8,2.1c0,0.4-0.1,0.7-0.4,0.9c-0.3,0.3-0.6,0.4-0.9,0.4
			c-0.4,0-0.7-0.1-0.9-0.3c-0.2-0.2-0.4-0.5-0.7-1c-0.4-0.8-0.9-1.3-1.4-1.7c-0.5-0.4-1.2-0.6-2-0.6c-1.3,0-2.3,0.5-3,1.5
			s-1.1,2.3-1.1,4.1c0,1.2,0.2,2.2,0.5,3c0.3,0.8,0.8,1.4,1.4,1.8c0.6,0.4,1.3,0.6,2.1,0.6c0.9,0,1.6-0.2,2.3-0.7
			c0.6-0.4,1.1-1.1,1.4-1.9c0.1-0.4,0.3-0.7,0.5-1c0.2-0.3,0.5-0.4,0.9-0.4c0.4,0,0.7,0.1,0.9,0.4S373.2,151.8,373.2,152.2z"/>
		<path class="st0" d="M386,144.1l-7,0v3.8l6.4,0c0.5,0,0.8,0.1,1.1,0.3c0.2,0.2,0.3,0.5,0.3,0.8c0,0.3-0.1,0.6-0.3,0.9
			c-0.2,0.2-0.6,0.3-1.1,0.3l-6.4,0v4.4l7.2,0c0.5,0,0.9,0.1,1.1,0.3c0.2,0.2,0.4,0.5,0.4,0.9c0,0.4-0.1,0.7-0.4,0.9
			c-0.2,0.2-0.6,0.3-1.1,0.3l-8.4,0c-0.7,0-1.2-0.1-1.5-0.4c-0.3-0.3-0.4-0.8-0.4-1.4l0-11.5c0-0.4,0.1-0.8,0.2-1.1
			c0.1-0.3,0.3-0.5,0.6-0.6c0.3-0.1,0.6-0.2,1.1-0.2l8.2,0c0.5,0,0.9,0.1,1.1,0.3c0.2,0.2,0.4,0.5,0.4,0.9c0,0.4-0.1,0.7-0.4,0.9
			C386.9,144,386.5,144.1,386,144.1z"/>
		<path class="st0" d="M401.8,152.4c0,0.9-0.2,1.8-0.7,2.5c-0.5,0.7-1.2,1.3-2.1,1.7c-0.9,0.4-2,0.6-3.3,0.6c-1.5,0-2.8-0.3-3.7-0.9
			c-0.7-0.4-1.3-1-1.7-1.6c-0.4-0.7-0.7-1.4-0.7-2c0-0.4,0.1-0.7,0.4-1c0.3-0.3,0.6-0.4,1-0.4c0.3,0,0.6,0.1,0.8,0.3
			c0.2,0.2,0.4,0.5,0.6,0.9c0.2,0.5,0.4,0.9,0.6,1.2c0.2,0.3,0.5,0.6,1,0.8c0.4,0.2,0.9,0.3,1.6,0.3c0.9,0,1.7-0.2,2.2-0.6
			c0.6-0.4,0.9-1,0.9-1.6c0-0.5-0.2-0.9-0.5-1.2c-0.3-0.3-0.7-0.6-1.2-0.7c-0.5-0.2-1.1-0.3-2-0.5c-1.1-0.3-2-0.6-2.8-0.9
			c-0.7-0.3-1.3-0.8-1.8-1.4c-0.4-0.6-0.7-1.3-0.7-2.2c0-0.8,0.2-1.6,0.7-2.2c0.5-0.7,1.1-1.2,2-1.5c0.9-0.4,1.9-0.5,3.1-0.5
			c0.9,0,1.8,0.1,2.4,0.3c0.7,0.2,1.3,0.5,1.7,0.9c0.5,0.4,0.8,0.8,1,1.2c0.2,0.4,0.3,0.8,0.3,1.2c0,0.4-0.1,0.7-0.4,1
			c-0.3,0.3-0.6,0.4-1,0.4c-0.4,0-0.6-0.1-0.8-0.3c-0.2-0.2-0.4-0.5-0.6-0.9c-0.3-0.6-0.6-1-1-1.4c-0.4-0.3-1-0.5-1.9-0.5
			c-0.8,0-1.4,0.2-1.9,0.5c-0.5,0.4-0.7,0.8-0.7,1.3c0,0.3,0.1,0.6,0.2,0.8c0.2,0.2,0.4,0.4,0.7,0.6c0.3,0.2,0.6,0.3,0.9,0.4
			c0.3,0.1,0.8,0.2,1.5,0.4c0.9,0.2,1.6,0.4,2.3,0.7c0.7,0.2,1.3,0.5,1.8,0.9s0.9,0.8,1.1,1.3C401.7,151,401.8,151.7,401.8,152.4z"
			/>
	</g>
	<g>
		<g>
			<path class="st0" d="M228.3,98.1l-8,0l0,7.3C223.2,104.6,226,101.9,228.3,98.1z"/>
			<path class="st0" d="M232,90.1l-11.7,0l0,4.7l9.8,0C230.8,93.4,231.4,91.8,232,90.1z"/>
			<path class="st0" d="M220.3,31.5l0,6.8l7.7,0C225.7,34.8,223.1,32.3,220.3,31.5z"/>
			<path class="st0" d="M220.3,46.8l11.7,0c-0.7-1.9-1.4-3.6-2.2-5.2l-9.5,0L220.3,46.8z"/>
			<path class="st0" d="M216,90.1l-11.7,0c0.6,1.7,1.2,3.3,1.9,4.7l9.8,0L216,90.1z"/>
			<path class="st0" d="M216,105.4l0-7.3l-8,0C210.3,101.9,213,104.6,216,105.4z"/>
			<path class="st0" d="M202.9,98.1l-6.8,0c3.1,2.5,6.6,4.5,10.4,5.7C205.2,102.3,204,100.3,202.9,98.1z"/>
			<path class="st0" d="M201.4,94.9c-0.6-1.5-1.2-3.1-1.7-4.7l-11.2,0c1.2,1.7,2.6,3.3,4.1,4.7L201.4,94.9z"/>
			<path class="st0" d="M234.6,41.6c0.7,1.7,1.4,3.4,2,5.2l11.2,0c-1.4-1.9-2.9-3.6-4.6-5.2L234.6,41.6z"/>
			<path class="st0" d="M233.1,38.3l6.4,0c-3-2.2-6.3-4.1-9.8-5.2C230.9,34.5,232,36.3,233.1,38.3z"/>
			<path class="st0" d="M233.3,98.1c-1.1,2.2-2.3,4.1-3.7,5.7c3.8-1.3,7.3-3.3,10.4-5.7L233.3,98.1z"/>
			<path class="st0" d="M247.8,90.1l-11.2,0c-0.5,1.6-1.1,3.2-1.7,4.7l8.9,0C245.2,93.4,246.6,91.8,247.8,90.1z"/>
			<path class="st0" d="M203.1,38.3c1-2,2.2-3.8,3.4-5.2c-3.5,1.2-6.8,3-9.8,5.2L203.1,38.3z"/>
			<path class="st0" d="M188.4,46.8l11.2,0c0.6-1.8,1.2-3.6,1.9-5.2l-8.6,0C191.3,43.2,189.8,45,188.4,46.8z"/>
			<path class="st0" d="M204.2,46.8l11.7,0l0-5.2l-9.5,0C205.6,43.2,204.9,45,204.2,46.8z"/>
			<path class="st0" d="M208.3,38.3l7.7,0l0-6.8C213.1,32.3,210.5,34.8,208.3,38.3z"/>
			<path class="st0" d="M188.8,62c0.6-0.8,1.4-1.3,2.3-1.7c0.9-0.4,1.9-0.6,3.1-0.6c1.1,0,2,0.2,2.8,0.5c0.7,0.3,1.3,0.8,1.7,1.2
				c0.4,0.5,0.9,1.2,1.6,2.2c0.2,0.3,0.5,0.5,0.8,0.7c0.3,0.2,0.7,0.3,1,0.3c0.7,0,1.2-0.2,1.7-0.7s0.7-1,0.7-1.6
				c0-0.6-0.2-1.3-0.6-2c-0.4-0.8-1-1.5-1.8-2.1c-0.8-0.7-1.8-1.2-3.1-1.7c-1.3-0.4-2.8-0.7-4.4-0.7c-2,0-3.8,0.3-5.4,0.9
				c-1.6,0.6-2.9,1.4-4.1,2.6c-1.1,1.1-2,2.5-2.5,4.1c-0.6,1.6-0.9,3.4-0.9,5.3c0,2,0.3,3.7,0.9,5.3c0.6,1.6,1.4,2.9,2.5,4
				c1.1,1.1,2.4,2,4,2.5c1.6,0.6,3.3,0.9,5.2,0.9c1.6,0,3.1-0.2,4.5-0.6c1.4-0.4,2.8-1,4.3-1.8c0.5-0.3,0.9-0.6,1.3-0.9
				c0.3-0.3,0.6-0.6,0.7-1c0.1-0.4,0.2-0.9,0.2-1.5v-4.7c0-0.9-0.2-1.5-0.4-1.9c-0.3-0.4-0.7-0.7-1.2-0.8c-0.5-0.1-1.1-0.2-1.8-0.2
				l-5.7,0c-0.7,0-1.2,0.2-1.6,0.5c-0.4,0.4-0.6,0.8-0.6,1.4c0,0.7,0.2,1.2,0.7,1.4c0.5,0.3,1.2,0.4,2.1,0.4h3.9v4
				c-1,0.6-2.1,1-3.1,1.3c-1,0.3-2.1,0.5-3.3,0.5c-2.4,0-4.2-0.8-5.6-2.3c-1.3-1.6-2-3.8-2-6.7c0-1.3,0.2-2.6,0.5-3.7
				C187.7,63.7,188.2,62.7,188.8,62z"/>
			<path class="st0" d="M212.5,59.2c-1.1,1.1-1.9,2.5-2.5,4c-0.6,1.6-0.9,3.4-0.9,5.3c0,1.2,0.1,2.4,0.3,3.5c0.2,1.1,0.6,2.1,1,3.1
				c0.5,1,1,1.8,1.7,2.6c0.7,0.9,1.5,1.5,2.4,2.1c0.9,0.5,1.8,0.9,2.9,1.2c1.1,0.2,2.3,0.4,3.6,0.4c1.7,0,3.2-0.3,4.5-0.8
				c1.3-0.6,2.4-1.3,3.2-2.2c0.8-0.9,1.4-1.8,1.8-2.7c0.4-0.9,0.6-1.8,0.6-2.6c0-0.6-0.2-1.1-0.6-1.6c-0.4-0.4-0.9-0.6-1.5-0.6
				c-0.7,0-1.2,0.2-1.5,0.6c-0.3,0.4-0.6,0.9-0.8,1.6c-0.5,1.4-1.3,2.4-2.3,3.1c-1,0.7-2.2,1.1-3.6,1.1c-1.3,0-2.5-0.3-3.5-0.9
				c-1-0.6-1.8-1.6-2.3-2.9c-0.5-1.3-0.8-2.9-0.8-4.8c0-2.9,0.6-5.1,1.8-6.7c1.2-1.6,2.9-2.3,4.9-2.3c1.3,0,2.4,0.3,3.3,0.9
				c0.9,0.6,1.6,1.5,2.3,2.7c0.4,0.7,0.8,1.3,1.1,1.6c0.3,0.3,0.8,0.5,1.4,0.5c0.6,0,1.1-0.2,1.5-0.7c0.4-0.4,0.6-0.9,0.6-1.5
				c0-1-0.4-2.2-1.2-3.3c-0.8-1.2-2-2.2-3.6-3c-1.6-0.8-3.3-1.2-5.3-1.2c-1.6,0-3.2,0.3-4.6,0.9C214.8,57.2,213.6,58.1,212.5,59.2z"
				/>
			<path class="st0" d="M241.1,60.2c0.8-0.6,1.8-0.9,3.1-0.9c1.4,0,2.4,0.3,3,0.8c0.6,0.5,1.2,1.3,1.6,2.2c0.3,0.7,0.7,1.1,1,1.4
				s0.7,0.4,1.3,0.4c0.6,0,1.2-0.2,1.6-0.7c0.4-0.5,0.6-1,0.6-1.6c0-0.7-0.2-1.3-0.5-2c-0.3-0.7-0.9-1.3-1.6-2
				c-0.7-0.6-1.6-1.1-2.8-1.5c-1.1-0.4-2.4-0.6-3.9-0.6c-1.9,0-3.6,0.3-5,0.9c-1.4,0.6-2.5,1.4-3.2,2.4c-0.7,1.1-1.1,2.3-1.1,3.6
				c0,1.4,0.4,2.6,1.1,3.6c0.7,1,1.7,1.7,2.8,2.3c1.2,0.6,2.7,1,4.5,1.5c1.3,0.3,2.4,0.6,3.2,0.9c0.8,0.3,1.4,0.7,1.9,1.2
				c0.5,0.5,0.7,1.2,0.7,2c0,1-0.5,1.9-1.4,2.6c-0.9,0.7-2.1,1-3.6,1c-1.1,0-1.9-0.2-2.6-0.5c-0.7-0.3-1.2-0.8-1.5-1.3
				c-0.4-0.5-0.7-1.2-1-2c-0.3-0.7-0.6-1.2-0.9-1.5s-0.8-0.5-1.3-0.5c-0.7,0-1.2,0.2-1.6,0.6c-0.4,0.4-0.6,1-0.6,1.6
				c0,1,0.4,2.1,1.1,3.2c0.7,1.1,1.6,2,2.7,2.7c1.6,0.9,3.6,1.4,6,1.4c2,0,3.8-0.3,5.3-1c1.5-0.7,2.6-1.6,3.4-2.8
				c0.8-1.2,1.2-2.5,1.2-4c0-1.2-0.2-2.3-0.7-3.2c-0.4-0.9-1.1-1.6-1.9-2.1c-0.8-0.6-1.8-1-2.9-1.4c-1.1-0.4-2.4-0.8-3.8-1.1
				c-1.1-0.3-1.9-0.5-2.4-0.6c-0.5-0.1-1-0.3-1.4-0.6c-0.5-0.3-0.8-0.6-1.1-0.9c-0.3-0.4-0.4-0.8-0.4-1.3
				C239.9,61.4,240.3,60.8,241.1,60.2z"/>
		</g>
		<path class="st0" d="M240,113L240,113c-11.1,5.4-23.8,6.6-35.7,3.2c-12-3.4-22.3-11.1-29-21.6c-4.8-7.6-7.4-16.3-7.7-25.3
			c-0.2-6.1,0.8-12.2,2.7-17.9c0.5-1.2,0.2-2.6-0.7-3.6c-1.3-1.3-3.4-1.3-4.7,0c-0.4,0.4-0.6,0.8-0.8,1.2c0,0,0,0,0,0c0,0,0,0,0,0
			c-2.3,6.5-3.3,13.4-3.1,20.3c0.3,10.1,3.3,20,8.7,28.6c7.5,12,19.2,20.7,32.8,24.5c13.5,3.8,27.9,2.5,40.5-3.7l0,0
			c0.3-0.2,0.6-0.4,0.8-0.6c1.3-1.3,1.3-3.4,0-4.7C242.8,112.7,241.2,112.4,240,113z"/>
		<path class="st0" d="M195,23.4L195,23.4c11.1-5.4,23.8-6.6,35.7-3.2c12,3.4,22.3,11.1,29,21.6c4.8,7.6,7.4,16.3,7.7,25.3
			c0.2,6.1-0.8,12.2-2.7,17.9c-0.5,1.2-0.2,2.6,0.7,3.6c1.3,1.3,3.4,1.3,4.7,0c0.4-0.4,0.6-0.8,0.8-1.2c0,0,0,0,0,0c0,0,0,0,0,0
			c2.3-6.5,3.3-13.4,3.1-20.3c-0.3-10.1-3.3-20-8.7-28.6c-7.5-12-19.2-20.7-32.8-24.5C219,10,204.6,11.3,192,17.5l0,0
			c-0.3,0.2-0.6,0.4-0.8,0.6c-1.3,1.3-1.3,3.4,0,4.7C192.2,23.8,193.8,24,195,23.4z"/>
		<path class="st0" d="M257.5,96.7c-3.9,0-7.1,3.2-7.1,7.1c0,3.9,3.2,7.1,7.1,7.1c3.9,0,7.1-3.2,7.1-7.1
			C264.6,99.9,261.4,96.7,257.5,96.7z"/>
		<path class="st0" d="M178.7,26c-3.9,0-7.1,3.2-7.1,7.1s3.2,7.1,7.1,7.1c3.9,0,7.1-3.2,7.1-7.1C185.9,29.1,182.7,26,178.7,26z"/>
	</g>
</g>
</svg>
